<?xml version="1.0" encoding="UTF-8" standalone="no"?>
<!-- Created with Inkscape (http://www.inkscape.org/) -->

<svg
   version="1.1"
   id="svg1"
   width="591.05334"
   height="886.03638"
   viewBox="0 0 591.05334 886.03638"
   sodipodi:docname="cover_tmp4.svg"
   inkscape:version="1.4.2 (ebf0e940d0, 2025-05-08)"
   xmlns:inkscape="http://www.inkscape.org/namespaces/inkscape"
   xmlns:sodipodi="http://sodipodi.sourceforge.net/DTD/sodipodi-0.dtd"
   xmlns:xlink="http://www.w3.org/1999/xlink"
   xmlns="http://www.w3.org/2000/svg"
   xmlns:svg="http://www.w3.org/2000/svg">
  <defs
     id="defs1">
    <clipPath
       clipPathUnits="userSpaceOnUse"
       id="clipPath1">
      <path
         d="M 0,0 H 1349.44 V 981.76 H 0 Z"
         id="path1" />
    </clipPath>
    <clipPath
       clipPathUnits="userSpaceOnUse"
       id="clipPath2">
      <path
         d="M 22.427,22.427 H 989.653 V 713.893 H 22.427 Z"
         transform="matrix(0.00103162,0,0,-0.00144159,-0.02209155,1.0305863)"
         id="path2" />
    </clipPath>
    <clipPath
       clipPathUnits="userSpaceOnUse"
       id="clipPath3">
      <path
         d="M 533.4,22.427 H 989.653 V 713.893 H 533.4 Z"
         transform="matrix(0.00218637,0,0,-0.00144184,-1.1662117,1.0308145)"
         id="path3" />
    </clipPath>
    <clipPath
       clipPathUnits="userSpaceOnUse"
       id="clipPath8">
      <path
         d="M 22.427,22.427 H 989.653 V 713.893 H 22.427 Z"
         transform="translate(-511.13201,-125.22791)"
         id="path8" />
    </clipPath>
    <clipPath
       clipPathUnits="userSpaceOnUse"
       id="clipPath18">
      <path
         d="M 22.427,22.427 H 989.653 V 713.893 H 22.427 Z"
         transform="translate(-888.84452,-77.930399)"
         id="path18" />
    </clipPath>
    <clipPath
       clipPathUnits="userSpaceOnUse"
       id="clipPath22">
      <path
         d="M 22.427,22.427 H 989.653 V 713.893 H 22.427 Z"
         transform="translate(-895.55882,-79.334204)"
         id="path22" />
    </clipPath>
    <clipPath
       clipPathUnits="userSpaceOnUse"
       id="clipPath26">
      <path
         d="M 22.427,22.427 H 989.653 V 713.893 H 22.427 Z"
         transform="translate(-913.59292,-80.599402)"
         id="path26" />
    </clipPath>
    <clipPath
       clipPathUnits="userSpaceOnUse"
       id="clipPath49">
      <path
         d="M 22.427,22.427 H 989.653 V 713.893 H 22.427 Z"
         transform="translate(-119.74571,-132.0905)"
         id="path49" />
    </clipPath>
    <clipPath
       clipPathUnits="userSpaceOnUse"
       id="clipPath59">
      <path
         d="M 22.427,22.427 H 989.653 V 713.893 H 22.427 Z"
         transform="translate(-115.3401,-115.6959)"
         id="path59" />
    </clipPath>
    <clipPath
       clipPathUnits="userSpaceOnUse"
       id="clipPath65">
      <path
         d="M 22.427,22.427 H 989.653 V 713.893 H 22.427 Z"
         transform="translate(-140.4642,-116.87741)"
         id="path65" />
    </clipPath>
    <clipPath
       clipPathUnits="userSpaceOnUse"
       id="clipPath79">
      <path
         d="M 22.427,22.427 H 989.653 V 713.893 H 22.427 Z"
         transform="translate(-105.4371,-122.59001)"
         id="path79" />
    </clipPath>
    <clipPath
       clipPathUnits="userSpaceOnUse"
       id="clipPath114">
      <path
         d="M 335.176,75.715 H 442.68 v 59.76 H 335.176 Z"
         transform="translate(-339.37631,-78.905602)"
         id="path114" />
    </clipPath>
    <clipPath
       clipPathUnits="userSpaceOnUse"
       id="clipPath116">
      <path
         d="M 335.176,75.715 H 442.68 v 59.76 H 335.176 Z"
         transform="translate(-349.18201,-126.81371)"
         id="path116" />
    </clipPath>
    <clipPath
       clipPathUnits="userSpaceOnUse"
       id="clipPath132">
      <path
         d="M 0,0 H 1012.08 V 736.32 H 0 Z"
         transform="translate(-14.999998,-699.72002)"
         id="path132" />
    </clipPath>
    <clipPath
       clipPathUnits="userSpaceOnUse"
       id="clipPath134">
      <path
         d="M 0,0 H 1012.08 V 736.32 H 0 Z"
         transform="translate(-14.999998,-699.72002)"
         id="path134" />
    </clipPath>
    <clipPath
       clipPathUnits="userSpaceOnUse"
       id="clipPath136">
      <path
         d="M 0,0 H 1012.08 V 736.32 H 0 Z"
         transform="translate(-19.426798,-713.89322)"
         id="path136" />
    </clipPath>
    <clipPath
       clipPathUnits="userSpaceOnUse"
       id="clipPath139">
      <path
         d="M 0,0 H 1012.08 V 736.32 H 0 Z"
         transform="translate(-511.04001,-728.81992)"
         id="path139" />
    </clipPath>
    <clipPath
       clipPathUnits="userSpaceOnUse"
       id="clipPath141">
      <path
         d="M 0,0 H 1012.08 V 736.32 H 0 Z"
         transform="translate(-500.04001,-728.81992)"
         id="path141" />
    </clipPath>
    <clipPath
       clipPathUnits="userSpaceOnUse"
       id="clipPath143">
      <path
         d="M 0,0 H 1012.08 V 736.32 H 0 Z"
         transform="translate(-506.04001,-734.81992)"
         id="path143" />
    </clipPath>
    <clipPath
       clipPathUnits="userSpaceOnUse"
       id="clipPath145">
      <path
         d="M 0,0 H 1012.08 V 736.32 H 0 Z"
         transform="translate(-509.04001,-728.81992)"
         id="path145" />
    </clipPath>
    <clipPath
       clipPathUnits="userSpaceOnUse"
       id="clipPath147">
      <path
         d="M 0,0 H 1012.08 V 736.32 H 0 Z"
         transform="translate(-511.04001,-728.81992)"
         id="path147" />
    </clipPath>
    <clipPath
       clipPathUnits="userSpaceOnUse"
       id="clipPath149">
      <path
         d="M 0,0 H 1012.08 V 736.32 H 0 Z"
         transform="translate(-500.04001,-728.81992)"
         id="path149" />
    </clipPath>
    <clipPath
       clipPathUnits="userSpaceOnUse"
       id="clipPath151">
      <path
         d="M 0,0 H 1012.08 V 736.32 H 0 Z"
         transform="translate(-506.04001,-734.81992)"
         id="path151" />
    </clipPath>
    <clipPath
       clipPathUnits="userSpaceOnUse"
       id="clipPath153">
      <path
         d="M 0,0 H 1012.08 V 736.32 H 0 Z"
         transform="translate(-509.04001,-728.81992)"
         id="path153" />
    </clipPath>
    <clipPath
       clipPathUnits="userSpaceOnUse"
       id="clipPath155">
      <path
         d="M 0,0 H 1012.08 V 736.32 H 0 Z"
         transform="translate(-503.04001,-728.81992)"
         id="path155" />
    </clipPath>
    <clipPath
       clipPathUnits="userSpaceOnUse"
       id="clipPath157">
      <path
         d="M 0,0 H 1012.08 V 736.32 H 0 Z"
         transform="translate(-506.04001,-731.81992)"
         id="path157" />
    </clipPath>
    <clipPath
       clipPathUnits="userSpaceOnUse"
       id="clipPath159">
      <path
         d="M 0,0 H 1012.08 V 736.32 H 0 Z"
         transform="translate(-511.04001,-7.4999977)"
         id="path159" />
    </clipPath>
    <clipPath
       clipPathUnits="userSpaceOnUse"
       id="clipPath161">
      <path
         d="M 0,0 H 1012.08 V 736.32 H 0 Z"
         transform="translate(-500.04001,-7.4999977)"
         id="path161" />
    </clipPath>
    <clipPath
       clipPathUnits="userSpaceOnUse"
       id="clipPath163">
      <path
         d="M 0,0 H 1012.08 V 736.32 H 0 Z"
         transform="translate(-506.04001,-13.499998)"
         id="path163" />
    </clipPath>
    <clipPath
       clipPathUnits="userSpaceOnUse"
       id="clipPath165">
      <path
         d="M 0,0 H 1012.08 V 736.32 H 0 Z"
         transform="translate(-509.04001,-7.4999977)"
         id="path165" />
    </clipPath>
    <clipPath
       clipPathUnits="userSpaceOnUse"
       id="clipPath167">
      <path
         d="M 0,0 H 1012.08 V 736.32 H 0 Z"
         transform="translate(-511.04001,-7.4999977)"
         id="path167" />
    </clipPath>
    <clipPath
       clipPathUnits="userSpaceOnUse"
       id="clipPath169">
      <path
         d="M 0,0 H 1012.08 V 736.32 H 0 Z"
         transform="translate(-500.04001,-7.4999977)"
         id="path169" />
    </clipPath>
    <clipPath
       clipPathUnits="userSpaceOnUse"
       id="clipPath171">
      <path
         d="M 0,0 H 1012.08 V 736.32 H 0 Z"
         transform="translate(-506.04001,-13.499998)"
         id="path171" />
    </clipPath>
    <clipPath
       clipPathUnits="userSpaceOnUse"
       id="clipPath173">
      <path
         d="M 0,0 H 1012.08 V 736.32 H 0 Z"
         transform="translate(-509.04001,-7.4999977)"
         id="path173" />
    </clipPath>
    <clipPath
       clipPathUnits="userSpaceOnUse"
       id="clipPath175">
      <path
         d="M 0,0 H 1012.08 V 736.32 H 0 Z"
         transform="translate(-503.04001,-7.4999977)"
         id="path175" />
    </clipPath>
    <clipPath
       clipPathUnits="userSpaceOnUse"
       id="clipPath177">
      <path
         d="M 0,0 H 1012.08 V 736.32 H 0 Z"
         transform="translate(-506.04001,-10.499998)"
         id="path177" />
    </clipPath>
    <clipPath
       clipPathUnits="userSpaceOnUse"
       id="clipPath179">
      <path
         d="M 0,0 H 1012.08 V 736.32 H 0 Z"
         transform="translate(-12.5,-368.16001)"
         id="path179" />
    </clipPath>
    <clipPath
       clipPathUnits="userSpaceOnUse"
       id="clipPath181">
      <path
         d="M 0,0 H 1012.08 V 736.32 H 0 Z"
         transform="translate(-1.4999975,-368.16001)"
         id="path181" />
    </clipPath>
    <clipPath
       clipPathUnits="userSpaceOnUse"
       id="clipPath183">
      <path
         d="M 0,0 H 1012.08 V 736.32 H 0 Z"
         transform="translate(-7.4999977,-374.16001)"
         id="path183" />
    </clipPath>
    <clipPath
       clipPathUnits="userSpaceOnUse"
       id="clipPath185">
      <path
         d="M 0,0 H 1012.08 V 736.32 H 0 Z"
         transform="translate(-10.499998,-368.16001)"
         id="path185" />
    </clipPath>
    <clipPath
       clipPathUnits="userSpaceOnUse"
       id="clipPath187">
      <path
         d="M 0,0 H 1012.08 V 736.32 H 0 Z"
         transform="translate(-12.5,-368.16001)"
         id="path187" />
    </clipPath>
    <clipPath
       clipPathUnits="userSpaceOnUse"
       id="clipPath189">
      <path
         d="M 0,0 H 1012.08 V 736.32 H 0 Z"
         transform="translate(-1.4999975,-368.16001)"
         id="path189" />
    </clipPath>
    <clipPath
       clipPathUnits="userSpaceOnUse"
       id="clipPath191">
      <path
         d="M 0,0 H 1012.08 V 736.32 H 0 Z"
         transform="translate(-7.4999977,-374.16001)"
         id="path191" />
    </clipPath>
    <clipPath
       clipPathUnits="userSpaceOnUse"
       id="clipPath193">
      <path
         d="M 0,0 H 1012.08 V 736.32 H 0 Z"
         transform="translate(-10.499998,-368.16001)"
         id="path193" />
    </clipPath>
    <clipPath
       clipPathUnits="userSpaceOnUse"
       id="clipPath195">
      <path
         d="M 0,0 H 1012.08 V 736.32 H 0 Z"
         transform="translate(-4.4999976,-368.16001)"
         id="path195" />
    </clipPath>
    <clipPath
       clipPathUnits="userSpaceOnUse"
       id="clipPath197">
      <path
         d="M 0,0 H 1012.08 V 736.32 H 0 Z"
         transform="translate(-7.4999977,-371.16001)"
         id="path197" />
    </clipPath>
    <clipPath
       clipPathUnits="userSpaceOnUse"
       id="clipPath199">
      <path
         d="M 0,0 H 1012.08 V 736.32 H 0 Z"
         transform="translate(-1009.58,-368.16001)"
         id="path199" />
    </clipPath>
    <clipPath
       clipPathUnits="userSpaceOnUse"
       id="clipPath201">
      <path
         d="M 0,0 H 1012.08 V 736.32 H 0 Z"
         transform="translate(-998.58002,-368.16001)"
         id="path201" />
    </clipPath>
    <clipPath
       clipPathUnits="userSpaceOnUse"
       id="clipPath203">
      <path
         d="M 0,0 H 1012.08 V 736.32 H 0 Z"
         transform="translate(-1004.58,-374.16001)"
         id="path203" />
    </clipPath>
    <clipPath
       clipPathUnits="userSpaceOnUse"
       id="clipPath205">
      <path
         d="M 0,0 H 1012.08 V 736.32 H 0 Z"
         transform="translate(-1007.58,-368.16001)"
         id="path205" />
    </clipPath>
    <clipPath
       clipPathUnits="userSpaceOnUse"
       id="clipPath207">
      <path
         d="M 0,0 H 1012.08 V 736.32 H 0 Z"
         transform="translate(-1009.58,-368.16001)"
         id="path207" />
    </clipPath>
    <clipPath
       clipPathUnits="userSpaceOnUse"
       id="clipPath209">
      <path
         d="M 0,0 H 1012.08 V 736.32 H 0 Z"
         transform="translate(-998.58002,-368.16001)"
         id="path209" />
    </clipPath>
    <clipPath
       clipPathUnits="userSpaceOnUse"
       id="clipPath211">
      <path
         d="M 0,0 H 1012.08 V 736.32 H 0 Z"
         transform="translate(-1004.58,-374.16001)"
         id="path211" />
    </clipPath>
    <clipPath
       clipPathUnits="userSpaceOnUse"
       id="clipPath213">
      <path
         d="M 0,0 H 1012.08 V 736.32 H 0 Z"
         transform="translate(-1007.58,-368.16001)"
         id="path213" />
    </clipPath>
    <clipPath
       clipPathUnits="userSpaceOnUse"
       id="clipPath215">
      <path
         d="M 0,0 H 1012.08 V 736.32 H 0 Z"
         transform="translate(-1001.58,-368.16001)"
         id="path215" />
    </clipPath>
    <clipPath
       clipPathUnits="userSpaceOnUse"
       id="clipPath217">
      <path
         d="M 0,0 H 1012.08 V 736.32 H 0 Z"
         transform="translate(-1004.58,-371.16001)"
         id="path217" />
    </clipPath>
    <clipPath
       clipPathUnits="userSpaceOnUse"
       id="clipPath220">
      <path
         d="M 0,0 H 1012.08 V 736.32 H 0 Z"
         transform="translate(-43.100001,-735.81992)"
         id="path220" />
    </clipPath>
    <clipPath
       clipPathUnits="userSpaceOnUse"
       id="clipPath223">
      <path
         d="M 0,0 H 1012.08 V 736.32 H 0 Z"
         transform="translate(-57.100004,-735.81992)"
         id="path223" />
    </clipPath>
    <clipPath
       clipPathUnits="userSpaceOnUse"
       id="clipPath226">
      <path
         d="M 0,0 H 1012.08 V 736.32 H 0 Z"
         transform="translate(-71.099999,-735.81992)"
         id="path226" />
    </clipPath>
    <clipPath
       clipPathUnits="userSpaceOnUse"
       id="clipPath229">
      <path
         d="M 0,0 H 1012.08 V 736.32 H 0 Z"
         transform="translate(-85.100002,-735.81992)"
         id="path229" />
    </clipPath>
    <clipPath
       clipPathUnits="userSpaceOnUse"
       id="clipPath232">
      <path
         d="M 0,0 H 1012.08 V 736.32 H 0 Z"
         transform="translate(-99.100005,-735.81992)"
         id="path232" />
    </clipPath>
    <clipPath
       clipPathUnits="userSpaceOnUse"
       id="clipPath235">
      <path
         d="M 0,0 H 1012.08 V 736.32 H 0 Z"
         transform="translate(-113.1,-735.81992)"
         id="path235" />
    </clipPath>
    <clipPath
       clipPathUnits="userSpaceOnUse"
       id="clipPath238">
      <path
         d="M 0,0 H 1012.08 V 736.32 H 0 Z"
         transform="translate(-127.1,-735.81992)"
         id="path238" />
    </clipPath>
    <clipPath
       clipPathUnits="userSpaceOnUse"
       id="clipPath241">
      <path
         d="M 0,0 H 1012.08 V 736.32 H 0 Z"
         transform="translate(-141.10001,-735.81992)"
         id="path241" />
    </clipPath>
    <clipPath
       clipPathUnits="userSpaceOnUse"
       id="clipPath244">
      <path
         d="M 0,0 H 1012.08 V 736.32 H 0 Z"
         transform="translate(-155.1,-735.81992)"
         id="path244" />
    </clipPath>
    <clipPath
       clipPathUnits="userSpaceOnUse"
       id="clipPath247">
      <path
         d="M 0,0 H 1012.08 V 736.32 H 0 Z"
         transform="translate(-169.1,-735.81992)"
         id="path247" />
    </clipPath>
    <clipPath
       clipPathUnits="userSpaceOnUse"
       id="clipPath250">
      <path
         d="M 0,0 H 1012.08 V 736.32 H 0 Z"
         transform="translate(-183.10001,-735.81992)"
         id="path250" />
    </clipPath>
    <clipPath
       clipPathUnits="userSpaceOnUse"
       id="clipPath253">
      <path
         d="M 0,0 H 1012.08 V 736.32 H 0 Z"
         transform="translate(-814.98002,-735.81992)"
         id="path253" />
    </clipPath>
    <clipPath
       clipPathUnits="userSpaceOnUse"
       id="clipPath256">
      <path
         d="M 0,0 H 1012.08 V 736.32 H 0 Z"
         transform="translate(-828.98002,-735.81992)"
         id="path256" />
    </clipPath>
    <clipPath
       clipPathUnits="userSpaceOnUse"
       id="clipPath259">
      <path
         d="M 0,0 H 1012.08 V 736.32 H 0 Z"
         transform="translate(-842.98002,-735.81992)"
         id="path259" />
    </clipPath>
    <clipPath
       clipPathUnits="userSpaceOnUse"
       id="clipPath262">
      <path
         d="M 0,0 H 1012.08 V 736.32 H 0 Z"
         transform="translate(-856.98002,-735.81992)"
         id="path262" />
    </clipPath>
    <clipPath
       clipPathUnits="userSpaceOnUse"
       id="clipPath265">
      <path
         d="M 0,0 H 1012.08 V 736.32 H 0 Z"
         transform="translate(-870.98002,-735.81992)"
         id="path265" />
    </clipPath>
    <clipPath
       clipPathUnits="userSpaceOnUse"
       id="clipPath268">
      <path
         d="M 0,0 H 1012.08 V 736.32 H 0 Z"
         transform="translate(-884.98002,-735.81992)"
         id="path268" />
    </clipPath>
    <clipPath
       clipPathUnits="userSpaceOnUse"
       id="clipPath271">
      <path
         d="M 0,0 H 1012.08 V 736.32 H 0 Z"
         transform="translate(-898.98002,-735.81992)"
         id="path271" />
    </clipPath>
    <clipPath
       clipPathUnits="userSpaceOnUse"
       id="clipPath274">
      <path
         d="M 0,0 H 1012.08 V 736.32 H 0 Z"
         transform="translate(-912.98002,-735.81992)"
         id="path274" />
    </clipPath>
    <clipPath
       clipPathUnits="userSpaceOnUse"
       id="clipPath277">
      <path
         d="M 0,0 H 1012.08 V 736.32 H 0 Z"
         transform="translate(-926.98003,-735.81992)"
         id="path277" />
    </clipPath>
    <clipPath
       clipPathUnits="userSpaceOnUse"
       id="clipPath280">
      <path
         d="M 0,0 H 1012.08 V 736.32 H 0 Z"
         transform="translate(-940.98002,-735.81992)"
         id="path280" />
    </clipPath>
    <clipPath
       clipPathUnits="userSpaceOnUse"
       id="clipPath283">
      <path
         d="M 0,0 H 1012.08 V 736.32 H 0 Z"
         transform="translate(-954.98002,-735.81992)"
         id="path283" />
    </clipPath>
    <clipPath
       clipPathUnits="userSpaceOnUse"
       id="clipPath284">
      <path
         d="M 0,0 H 1012.08 V 736.32 H 0 Z"
         transform="matrix(1,0,0,-1,-46.600004,5.9999976)"
         id="path284" />
    </clipPath>
    <clipPath
       clipPathUnits="userSpaceOnUse"
       id="clipPath285">
      <path
         d="M 0,0 H 1012.08 V 736.32 H 0 Z"
         transform="matrix(1,0,0,-1,-924.48002,5.9999976)"
         id="path285" />
    </clipPath>
    <clipPath
       clipPathUnits="userSpaceOnUse"
       id="clipPath287">
      <path
         d="M 0,0 H 1012.08 V 736.32 H 0 Z"
         transform="translate(-478.68001,-727.31992)"
         id="path287" />
    </clipPath>
    <clipPath
       clipPathUnits="userSpaceOnUse"
       id="clipPath289">
      <path
         d="M 0,0 H 1012.08 V 736.32 H 0 Z"
         transform="translate(-478.68001,-727.31992)"
         id="path289" />
    </clipPath>
    <clipPath
       clipPathUnits="userSpaceOnUse"
       id="clipPath291">
      <path
         d="M 0,0 H 1012.08 V 736.32 H 0 Z"
         transform="translate(-533.40001,-727.31992)"
         id="path291" />
    </clipPath>
    <clipPath
       clipPathUnits="userSpaceOnUse"
       id="clipPath293">
      <path
         d="M 0,0 H 1012.08 V 736.32 H 0 Z"
         transform="translate(-533.40001,-727.31992)"
         id="path293" />
    </clipPath>
    <filter
       inkscape:label="Fill Background"
       inkscape:menu="Fill and Transparency"
       inkscape:menu-tooltip="Adds a colorizable opaque background"
       style="color-interpolation-filters:sRGB;"
       id="filter335"
       x="-0.11999999999999998"
       y="-0.10999999999999999"
       width="1.2100000000000002"
       height="1.1900000000000002"
       inkscape:auto-region="false">
      <feFlood
         result="result1"
         flood-color="rgb(155,143,161)"
         flood-opacity="0.75137707418646693"
         id="feFlood334" />
      <feImage
         xlink:href=""
         result="result2"
         id="feImage334" />
      <feBlend
         result="result4"
         in2="result1"
         mode="multiply"
         id="feBlend334" />
      <feMerge
         result="result3"
         id="feMerge335">
        <feMergeNode
           in="result1"
           id="feMergeNode334" />
        <feMergeNode
           in="SourceGraphic"
           id="feMergeNode335" />
      </feMerge>
    </filter>
  </defs>
  <sodipodi:namedview
     id="namedview1"
     pagecolor="#ffffff"
     bordercolor="#000000"
     borderopacity="0.25"
     inkscape:showpageshadow="2"
     inkscape:pageopacity="0.0"
     inkscape:pagecheckerboard="0"
     inkscape:deskcolor="#d1d1d1"
     showguides="true"
     inkscape:zoom="1.6376303"
     inkscape:cx="-13.128726"
     inkscape:cy="532.78204"
     inkscape:window-width="2870"
     inkscape:window-height="1720"
     inkscape:window-x="0"
     inkscape:window-y="75"
     inkscape:window-maximized="1"
     inkscape:current-layer="g334">
    <inkscape:page
       x="0"
       y="0"
       inkscape:label="1"
       id="page1"
       width="591.05334"
       height="886.03638"
       margin="0"
       bleed="0" />
    <sodipodi:guide
       position="242.27691,746.93433"
       orientation="0,-1"
       id="guide297"
       inkscape:locked="false" />
    <sodipodi:guide
       position="49.50722,671.71392"
       orientation="1,0"
       id="guide298"
       inkscape:locked="false" />
  </sodipodi:namedview>
  <g
     id="g1"
     inkscape:groupmode="layer"
     inkscape:label="1"
     clip-path="url(#clipPath1)">
    <g
       id="g335"
       style="display:inline">
      <g
         id="g126">
        <text
           id="text126"
           xml:space="preserve"
           transform="matrix(1.3333333,0,0,1.3333333,48.145333,697.22053)"
           style="font-size:16px"><tspan
             id="tspan126"
             style="font-variant:normal;font-weight:bold;font-stretch:normal;font-size:16px;font-family:'Adwaita Sans';writing-mode:lr-tb;fill:#ffffff;fill-opacity:1;fill-rule:nonzero;stroke:none"
             x="0"
             y="0">Martijn Tennekes</tspan></text>
      </g>
      <g
         id="g127">
        <text
           id="text127"
           xml:space="preserve"
           transform="matrix(1.3333333,0,0,1.3333333,48.145333,730.26053)"
           style="font-size:16px"><tspan
             id="tspan127"
             style="font-variant:normal;font-weight:bold;font-stretch:normal;font-size:16px;font-family:'Adwaita Sans';writing-mode:lr-tb;fill:#ffffff;fill-opacity:1;fill-rule:nonzero;stroke:none"
             x="0"
             y="0">Jakub Nowosad</tspan></text>
      </g>
    </g>
    <g
       id="g334"
       style="display:inline">
      <g
         id="g123"
         style="display:inline;filter:url(#filter335)">
        <text
           id="text123"
           xml:space="preserve"
           transform="matrix(1.3333333,0,0,1.4035073,48.145333,176.39667)"
           style="font-size:32.1644px"><tspan
             id="tspan123"
             style="font-variant:normal;font-weight:bold;font-stretch:normal;font-size:32.1644px;font-family:'Adwaita Sans';writing-mode:lr-tb;fill:#ffffff;fill-opacity:1;fill-rule:nonzero;stroke:none"
             x="0"
             y="0">Spatial Data Visualization  </tspan></text>
        <text
           id="text123-2"
           xml:space="preserve"
           transform="scale(0.97467995,1.0259778)"
           style="font-size:24px;stroke-width:1.36797"
           x="50.742405"
           y="282.42905"><tspan
             id="tspan123-9"
             style="font-variant:normal;font-weight:bold;font-stretch:normal;font-size:24px;font-family:'Adwaita Sans';writing-mode:lr-tb;fill:#ffffff;fill-opacity:1;fill-rule:nonzero;stroke:none;stroke-width:1.36797"
             x="50.742405"
             y="282.42905">A Practical Guide to Thematic Mapping in R</tspan></text>
      </g>
      <g
         id="g125"
         style="display:inline">
        <text
           id="text125"
           xml:space="preserve"
           transform="matrix(1.3333333,0,0,1.4035073,48.145333,235.324)"
           style="font-size:32.1644px"><tspan
             id="tspan125"
             style="font-variant:normal;font-weight:bold;font-stretch:normal;font-size:32.1644px;font-family:'Adwaita Sans';writing-mode:lr-tb;fill:#ffffff;fill-opacity:1;fill-rule:nonzero;stroke:none"
             x="0"
             y="0">with tmap</tspan></text>
      </g>
    </g>
  </g>
</svg>
